<?xml version="1.0" encoding="UTF-8"?>
<svg id="Capa_1" data-name="Capa 1" xmlns="http://www.w3.org/2000/svg" viewBox="0 0 6364.6 1248">
  <defs>
    <style>
      .cls-1 {
        fill: #ffffff;
      }
    </style>
  </defs>
  <g>
    <path class="cls-1" d="M1351.85,831.44c-29.8,0-55.18-5.88-76.14-17.63-20.97-11.75-36.98-28.88-48.04-51.38-11.07-22.49-16.59-49.66-16.59-81.51v-110.81c0-32.03,5.53-59.24,16.59-81.65,11.06-22.4,27.07-39.53,48.04-51.38,20.96-11.85,46.34-17.77,76.14-17.77,24.62,0,46.52,5.46,65.71,16.38,19.18,10.93,35.06,26.76,47.64,47.49,12.58,20.74,21.28,45.92,26.1,75.54h-76.01c-2.86-13.51-7.27-24.95-13.25-34.3-5.98-9.35-13.21-16.52-21.68-21.52-8.48-5-17.98-7.5-28.5-7.5-20.52,0-36.45,6.53-47.77,19.58-11.33,13.05-17,31.43-17,55.12v110.81c0,23.7,5.66,42.03,17,54.99,11.33,12.96,27.25,19.44,47.77,19.44,16.06,0,29.62-5.51,40.68-16.52,11.06-11.01,18.64-26.61,22.75-46.79h76.01c-5,29.44-13.78,54.57-26.36,75.4-12.58,20.83-28.42,36.71-47.51,47.63-19.09,10.93-40.95,16.38-65.57,16.38Z"/>
    <path class="cls-1" d="M1681.59,831.44c-28.55,0-53.49-6.15-74.81-18.47-21.32-12.31-37.87-29.67-49.65-52.07-11.78-22.4-17.66-48.5-17.66-78.31v-114.42c0-29.99,5.89-56.14,17.66-78.45,11.78-22.31,28.32-39.62,49.65-51.93,21.32-12.31,46.26-18.47,74.81-18.47s53.48,6.16,74.81,18.47c21.32,12.31,37.87,29.62,49.65,51.93,11.78,22.31,17.66,48.46,17.66,78.45v114.42c0,29.81-5.89,55.91-17.66,78.31-11.78,22.4-28.33,39.76-49.65,52.07-21.32,12.31-46.26,18.47-74.81,18.47ZM1681.59,755.35c19.98,0,36-6.48,48.04-19.44,12.04-12.96,18.07-30.08,18.07-51.38v-118.3c0-21.47-6.02-38.64-18.07-51.51-12.04-12.87-28.06-19.3-48.04-19.3s-36,6.44-48.04,19.3c-12.04,12.87-18.07,30.04-18.07,51.51v118.3c0,21.29,6.02,38.42,18.07,51.38,12.04,12.96,28.06,19.44,48.04,19.44Z"/>
  </g>
  <path class="cls-1" d="M2016.06,827.47c-28.55,0-53.49-6.15-74.81-18.47-21.32-12.31-37.87-29.67-49.65-52.07-11.78-22.4-17.66-48.5-17.66-78.31v-114.42c0-29.99,5.89-56.14,17.66-78.45,11.78-22.31,28.32-39.62,49.65-51.93,21.32-12.31,46.26-18.47,74.81-18.47s53.48,6.16,74.81,18.47c21.32,12.31,37.87,29.62,49.65,51.93,11.78,22.31,17.66,48.46,17.66,78.45v114.42c0,29.81-5.89,55.91-17.66,78.31-11.78,22.4-28.33,39.76-49.65,52.07-21.32,12.31-46.26,18.47-74.81,18.47ZM2016.06,751.37c19.98,0,36-6.48,48.04-19.44,12.04-12.96,18.07-30.08,18.07-51.38v-118.3c0-21.47-6.02-38.64-18.07-51.51-12.04-12.87-28.06-19.3-48.04-19.3s-36,6.44-48.04,19.3c-12.04,12.87-18.07,30.04-18.07,51.51v118.3c0,21.29,6.02,38.42,18.07,51.38,12.04,12.96,28.06,19.44,48.04,19.44Z"/>
  <path class="cls-1" d="M2207.47,824.2v-403.79h73.33v403.79h-73.33ZM2240.92,667.57v-73.31h124.45c13.2,0,23.91-4.58,32.12-13.75,8.2-9.16,12.31-21.24,12.31-36.24s-4.06-27.63-12.18-36.8c-8.12-9.16-18.87-13.75-32.25-13.75h-124.45v-73.31h122.58c24.62,0,46.08,5.14,64.37,15.41,18.29,10.27,32.52,24.67,42.69,43.18,10.17,18.52,15.26,40.27,15.26,65.26s-5.09,46.47-15.26,64.98c-10.17,18.52-24.45,32.87-42.82,43.04-18.38,10.18-39.79,15.27-64.23,15.27h-122.58Z"/>
  <path class="cls-1" d="M2538.51,824.2v-403.79h73.33v403.79h-73.33ZM2565.01,493.72v-73.31h234.19v73.31h-234.19ZM2565.01,660.35v-73.31h204.75v73.31h-204.75ZM2565.01,824.2v-73.31h234.19v73.31h-234.19Z"/>
  <path class="cls-1" d="M2989.11,828.36c-18.56,0-36.71-1.94-54.47-5.83-17.76-3.89-34.39-9.58-49.92-17.08-15.52-7.5-29.53-16.52-42.02-27.08l33.99-62.76c14.99,12.77,32.29,22.63,51.92,29.58,19.63,6.94,39.79,10.41,60.49,10.41,23.91,0,42.46-4.21,55.67-12.64,13.2-8.42,19.81-20.32,19.81-35.69v-.28c0-11.66-3.3-20.59-9.9-26.8-6.6-6.2-15.3-10.78-26.1-13.75-10.8-2.96-22.53-5.46-35.19-7.5-15.17-2.4-30.51-5.42-46.03-9.03-15.52-3.61-29.8-9.35-42.82-17.22-13.03-7.87-23.51-19.11-31.45-33.74-7.94-14.62-11.91-34.16-11.91-58.6v-.28c0-39.43,12.49-69.94,37.47-91.5,24.98-21.57,60.31-32.35,105.99-32.35,21.05,0,42.46,3.66,64.23,10.97,21.77,7.32,42.02,17.73,60.75,31.24l-31.05,64.43c-14.99-10.92-30.65-19.3-46.97-25.13s-31.98-8.75-46.97-8.75c-22.48,0-39.88,3.84-52.19,11.52-12.31,7.69-18.47,18.47-18.47,32.35v.28c0,12.96,3.66,22.77,10.97,29.44,7.31,6.67,16.86,11.62,28.64,14.86,11.78,3.24,24.44,6.25,38.01,9.03,14.99,2.96,29.88,6.62,44.7,10.97,14.81,4.35,28.37,10.6,40.68,18.75,12.31,8.15,22.12,19.35,29.44,33.6,7.31,14.26,10.97,32.77,10.97,55.54v.56c0,38.88-12.94,69.01-38.81,90.39-25.87,21.38-62.36,32.08-109.47,32.08Z"/>
  <path class="cls-1" d="M3178.76,824.21l148.81-403.79h46.57l148.81,403.79h-78.96l-93.14-275.76-93.14,275.76h-78.96ZM3250.22,759.51v-73.31h204.75v73.31h-204.75Z"/>
  <path class="cls-1" d="M3569.14,823.92v-403.51h89.66l144.79,309.37-6.42,7.22v-316.59h70.12v403.51h-90.2l-144.26-304.65,6.42-7.22v311.87h-70.12Z"/>
  <path class="cls-1" d="M3955.06,823.84v-404.06h73.33v404.06h-73.33ZM3984.24,661.38v-73.31h135.43c11.42,0,20.56-4.35,27.43-13.05,6.87-8.7,10.39-20.18,10.57-34.44,0-14.25-3.44-25.73-10.3-34.44-6.87-8.7-16.1-13.05-27.7-13.05h-135.43v-73.31h141.32c21.59,0,40.46,5,56.61,15,16.15,10,28.68,24.07,37.6,42.21,8.92,18.15,13.38,39.34,13.38,63.6s-4.51,45.45-13.52,63.59c-9.01,18.15-21.54,32.21-37.6,42.21s-34.89,15-56.47,15h-141.32ZM4160.61,823.84l-94.48-174.96,78.42-12.77,104.92,187.73h-88.86Z"/>
  <path class="cls-1" d="M4291.54,823.84l148.81-403.79h46.57l148.81,403.79h-78.96l-93.14-275.76-93.14,275.76h-78.96ZM4363.01,759.13v-73.31h204.75v73.31h-204.75Z"/>
  <path class="cls-1" d="M4856.06,692.58l74.14-272.16h96.62v403.79h-66.64v-313.53l2.68,17.78-69.07,232.78-75.71-.48-68.8-226.75,2.68-23.33v313.53h-66.65v-403.79h96.62l74.14,272.16Z"/>
  <path class="cls-1" d="M5220.5,827.73c-28.55,0-53.49-6.15-74.81-18.47-21.32-12.31-37.87-29.67-49.65-52.07-11.78-22.4-17.66-48.5-17.66-78.31v-114.42c0-29.99,5.89-56.14,17.66-78.45,11.78-22.31,28.32-39.62,49.65-51.93,21.32-12.31,46.26-18.47,74.81-18.47s53.48,6.16,74.81,18.47c21.32,12.31,37.87,29.62,49.65,51.93,11.78,22.31,17.67,48.46,17.67,78.45v114.42c0,29.81-5.89,55.91-17.67,78.31-11.78,22.4-28.33,39.76-49.65,52.07-21.32,12.31-46.26,18.47-74.81,18.47ZM5220.5,751.64c19.98,0,36-6.48,48.04-19.44,12.04-12.96,18.07-30.08,18.07-51.38v-118.3c0-21.47-6.02-38.64-18.07-51.51-12.04-12.87-28.06-19.3-48.04-19.3s-36,6.44-48.04,19.3c-12.04,12.87-18.07,30.04-18.07,51.51v118.3c0,21.29,6.02,38.42,18.07,51.38,12.04,12.96,28.06,19.44,48.04,19.44ZM5230.93,394.78l-43.63-46.65,73.87-68.04,48.71,51.93-78.96,62.76Z"/>
  <path class="cls-1" d="M5416.58,823.29v-403.51h89.66l144.79,309.37-6.42,7.22v-316.59h70.12v403.51h-90.2l-144.26-304.65,6.42-7.22v311.87h-70.12Z"/>
  <g>
    <g>
      <path class="cls-1" d="M1049.17,817.8l-3.86-3.67c40.2-42.36,61.45-96.09,61.45-155.38,0-127.59-103.8-231.39-231.39-231.39s-231.39,103.8-231.39,231.39c0,56.24,18.33,107.26,53.02,147.57l-4.04,3.48c-35.53-41.28-54.31-93.51-54.31-151.04,0-130.53,106.19-236.72,236.72-236.72s236.72,106.19,236.72,236.72c0,60.68-21.76,115.68-62.92,159.05Z"/>
      <path class="cls-1" d="M1049.39,826.24l-12.52-11.88,4.11-4.33c39.13-41.23,59.81-93.54,59.81-151.28,0-124.3-101.12-225.42-225.42-225.42s-225.42,101.12-225.42,225.42c0,54.79,17.83,104.47,51.58,143.67l3.89,4.52-13.08,11.26-3.89-4.52c-36.48-42.38-55.76-95.96-55.76-154.94,0-133.82,108.87-242.69,242.69-242.69s242.69,108.87,242.69,242.69c0,62.24-22.32,118.66-64.56,163.16l-4.11,4.33Z"/>
    </g>
    <g>
      <polygon class="cls-1" points="1138.78 831.44 819.96 735.29 612.64 831.44 1138.78 831.44"/>
      <polygon class="cls-1" points="1138.78 815.96 862.76 610.07 612.88 611 1138.78 815.96"/>
      <polygon class="cls-1" points="1138.85 798.14 964.73 508.03 733.82 434.13 1138.85 798.14"/>
    </g>
  </g>
</svg>

